# xmcd
#
# Track frame offsets: 
#        182
#        18985
#        37210
#        56032
#        81687
#        100375
#        118332
#        136252
#        156332
#        173380
#
# Disc length: 2575 seconds
#
# Revision: 2
# Processed by: cddbd v1.5.2PL0 Copyright (c) Steve Scherf et al.
# Submitted via: ExactAudioCopy v1.0b3
#
DISCID=8b0a0d0a
DTITLE=O'Jays - Love Fever
DYEAR=1992
DGENRE=Soul
TTITLE0=Can't Slow Down
TTITLE1=Dollar Bill
TTITLE2=All Eyes on Africa
TTITLE3=Just Another Lonely Night
TTITLE4=I Want to Be With You Tonight
TTITLE5=Love Fever
TTITLE6=I Love America
TTITLE7=What a Woman
TTITLE8=We're Still Together
TTITLE9=What Good Are These Arms of Mine
EXTD=
EXTT0=
EXTT1=
EXTT2=
EXTT3=
EXTT4=
EXTT5=
EXTT6=
EXTT7=
EXTT8=
EXTT9=
PLAYORDER=
